<?xml version="1.0" encoding="UTF-8"?>
<!-- Creator: CorelDRAW -->
<svg xmlns="http://www.w3.org/2000/svg" xmlns:xlink="http://www.w3.org/1999/xlink" xmlns:xodm="http://www.corel.com/coreldraw/odm/2003" xml:space="preserve" width="1000px" height="609px" version="1.1" style="shape-rendering:geometricPrecision; text-rendering:geometricPrecision; image-rendering:optimizeQuality; fill-rule:evenodd; clip-rule:evenodd" viewBox="0 0 105.39 64.18">
 <defs>
  <style type="text/css">
   <![CDATA[
    .fil1 {fill:black;fill-rule:nonzero}
    .fil0 {fill:black;fill-rule:nonzero}
   ]]>
  </style>
 </defs>
 <g id="Camada_x0020_1">
  <metadata id="CorelCorpID_0Corel-Layer"></metadata>
  <g id="_1551865725616">
   <path class="fil0" d="M47.67 16.2l12.3 0 0 -12.89 -12.3 0 0 12.89zm-3.43 -16.2l19.16 0 0 19.48 -19.16 0 0 -19.48z"></path>
   <polygon class="fil0" points="57.74,14.08 49.86,14.08 49.86,5.44 57.74,5.44 "></polygon>
   <polygon class="fil0" points="41.31,64.15 22.15,64.15 22.15,22.42 41.31,22.42 "></polygon>
   <polygon class="fil0" points="0,0 41.31,0 41.31,19.48 0,19.48 "></polygon>
   <polygon class="fil1" points="48.15,48.59 48.15,60.28 63.4,60.28 63.4,64.18 44.22,64.18 44.22,44.69 63.4,44.69 63.4,48.59 "></polygon>
   <polygon class="fil1" points="76.43,48.56 76.43,60.2 82.64,60.2 82.64,64.18 66.33,64.18 66.33,60.2 72.54,60.2 72.54,48.56 66.33,48.56 66.33,44.69 82.64,44.69 82.64,48.56 "></polygon>
   <path class="fil1" d="M101.49 48.59l-11.86 0 0 3.86 11.86 0 0 -3.86zm3.9 15.59l-3.9 0 0 -7.72 -11.86 0 0 7.72 -4.06 0 0 -19.49 19.82 0 0 19.49z"></path>
   <path class="fil1" d="M55.49 38.18l-4.3 -4.15 -2.98 0c-0.41,0 -0.74,0.36 -0.74,0.83l0 3.18c0,0.47 0.33,0.83 0.74,0.83l6.65 0 0.63 -0.69zm7.9 3.57l-4.18 0 -1.7 -1.63 -1.51 1.63 -8.35 0c-1.89,0 -3.42,-1.66 -3.42,-3.71l0 -2.99c0,-2.04 1.53,-3.7 3.42,-3.7l0.76 0 -2.85 -2.74 0 -2.52c0,-2.05 1.52,-3.71 3.41,-3.71l5.89 0c1.88,0 3.41,1.66 3.41,3.71l0 2.49 -3.21 0 0 -2.49c0,-0.45 -0.36,-0.81 -0.76,-0.81l-4.74 0c-0.44,0 -0.77,0.36 -0.77,0.81l0 1.55 8.69 8.41 0.23 -0.28 0 -4.73 2.83 0 0 5.78 -1.07 1.17 3.92 3.76z"></path>
  </g>
 </g>
</svg>
