<?xml version="1.0" encoding="UTF-8"?>
<!-- Creator: CorelDRAW -->
<svg xmlns="http://www.w3.org/2000/svg" xmlns:xlink="http://www.w3.org/1999/xlink" xmlns:xodm="http://www.corel.com/coreldraw/odm/2003" xml:space="preserve" width="1000px" height="609px" version="1.1" style="shape-rendering:geometricPrecision; text-rendering:geometricPrecision; image-rendering:optimizeQuality; fill-rule:evenodd; clip-rule:evenodd" viewBox="0 0 83.63 50.93">
 <defs>
  <style type="text/css">
   <![CDATA[
    .fil0 {fill:white;fill-rule:nonzero}
   ]]>
  </style>
 </defs>
 <g id="Camada_x0020_1">
  <metadata id="CorelCorpID_0Corel-Layer"></metadata>
  <g id="_1551577101344">
   <path class="fil0" d="M37.83 12.85l9.76 0 0 -10.23 -9.76 0 0 10.23zm-2.73 -12.85l15.21 0 0 15.46 -15.21 0 0 -15.46z"></path>
   <polygon class="fil0" points="45.82,11.18 39.56,11.18 39.56,4.32 45.82,4.32 "></polygon>
   <polygon class="fil0" points="32.78,50.91 17.58,50.91 17.58,17.79 32.78,17.79 "></polygon>
   <polygon class="fil0" points="0,0 32.78,0 32.78,15.46 0,15.46 "></polygon>
   <polygon class="fil0" points="38.21,38.56 38.21,47.84 50.31,47.84 50.31,50.93 35.09,50.93 35.09,35.46 50.31,35.46 50.31,38.56 "></polygon>
   <polygon class="fil0" points="60.65,38.54 60.65,47.77 65.58,47.77 65.58,50.93 52.64,50.93 52.64,47.77 57.56,47.77 57.56,38.54 52.64,38.54 52.64,35.47 65.58,35.47 65.58,38.54 "></polygon>
   <path class="fil0" d="M80.54 38.56l-9.42 0 0 3.06 9.42 0 0 -3.06zm3.09 12.37l-3.09 0 0 -6.13 -9.42 0 0 6.13 -3.22 0 0 -15.47 15.73 0 0 15.47z"></path>
   <path class="fil0" d="M44.04 30.3l-3.42 -3.3 -2.37 0c-0.32,0 -0.58,0.29 -0.58,0.66l0 2.53c0,0.37 0.26,0.66 0.58,0.66l5.28 0 0.51 -0.55zm6.27 2.83l-3.32 0 -1.36 -1.29 -1.19 1.29 -6.63 0c-1.5,0 -2.71,-1.32 -2.71,-2.94l0 -2.37c0,-1.63 1.21,-2.95 2.71,-2.95l0.61 0 -2.27 -2.17 0 -2c0,-1.62 1.21,-2.94 2.71,-2.94l4.67 0c1.5,0 2.71,1.32 2.71,2.94l0 1.98 -2.55 0 0 -1.98c0,-0.35 -0.28,-0.64 -0.6,-0.64l-3.76 0c-0.35,0 -0.61,0.29 -0.61,0.64l0 1.23 6.89 6.68 0.19 -0.22 0 -3.76 2.24 0 0 4.59 -0.85 0.92 3.12 2.99z"></path>
  </g>
 </g>
</svg>
