<svg xmlns="http://www.w3.org/2000/svg" xmlns:xlink="http://www.w3.org/1999/xlink" xmlns:xodm="http://www.corel.com/coreldraw/odm/2003" xml:space="preserve" width="3550px" height="1555px" style="shape-rendering:geometricPrecision; text-rendering:geometricPrecision; image-rendering:optimizeQuality; fill-rule:evenodd; clip-rule:evenodd" viewBox="0 0 3375.59 1479.21"> <defs>  <style type="text/css">   <![CDATA[    .fil0 {fill:white;fill-rule:nonzero}   ]]>  </style> </defs> <g id="Camada_x0020_1">  <metadata id="CorelCorpID_0Corel-Layer"></metadata>  <g id="_1587079809680">   <polygon class="fil0" points="0.81,552.69 53.02,552.69 53.02,710.6 211.1,710.6 211.1,763.08 0.81,763.08 "></polygon>   <polygon class="fil0" points="0.81,346.91 105.37,346.91 105.37,189.15 158.81,189.15 158.81,399.13 0.81,399.13 "></polygon>   <polygon class="fil0" points="0.81,449.8 103.43,449.8 103.43,503.55 0.81,503.55 "></polygon>   <polygon class="fil0" points="0.81,188.74 52.64,188.74 52.64,291.63 0.81,291.63 "></polygon>   <polygon class="fil0" points="0.81,29.03 52.65,29.03 52.65,130.38 0.81,130.38 "></polygon>   <polygon class="fil0" points="1872.6,398.81 1504.04,398.81 1504.04,189.11 1557.21,189.11 1557.21,346.44 1818.95,346.44 1818.95,189.37 1872.6,189.37 "></polygon>   <path class="fil0" d="M2846.59 503.01l0 -52.91 157.84 0 0 -158.4c17.35,0 33.91,-0.19 50.44,0.33 1.37,0.05 3.69,4.86 3.71,7.47 0.25,35.55 0.17,71.11 0.17,106.67l0 43.33 156.42 0 0 53.51 -368.58 0z"></path>   <path class="fil0" d="M2087.29 450.09l0 -158.45c16.61,0 32.69,0.04 48.76,-0.02 4.9,-0.01 5.03,3.14 5.03,6.74 -0.05,18.41 -0.02,36.83 -0.02,55.25 0,31.69 0,63.39 0,95.9l156.56 0 0 53.64 -368.67 0 0 -53.06 158.34 0z"></path>   <path class="fil0" d="M1078.98 503.02l0 -52.94 156.71 0 0 -8.56c0,-47.07 0.11,-94.14 -0.13,-141.2 -0.03,-6.55 1.57,-9.07 8.56,-8.84 14.82,0.5 29.66,0.15 45.31,0.15l0 157.89 158.12 0 0 53.5 -368.57 0z"></path>   <path class="fil0" d="M371.87 291.63l0 157.76 158.06 0 0 53.7 -368.55 0 0 -52.88 156.62 0c0,-3.49 0,-6.19 0,-8.88 0,-47.07 0.13,-94.14 -0.15,-141.2 -0.03,-6.83 2.05,-8.84 8.77,-8.64 14.8,0.45 29.63,0.14 45.25,0.14z"></path>   <polygon class="fil0" points="1872.79,710.57 1872.79,762.67 1503.99,762.67 1503.99,711.19 1662.01,711.19 1662.01,553.13 1714.11,553.13 1714.11,710.57 "></polygon>   <polygon class="fil0" points="2457.69,398.77 2300.05,398.77 2300.05,189.35 2631.66,189.35 2631.66,225.43 2353.97,225.43 2353.97,346.48 2457.69,346.48 "></polygon>   <polygon class="fil0" points="1076.95,189.19 1076.95,398.5 919.06,398.5 919.06,347.02 1022.82,347.02 1022.82,225.97 745.05,225.97 745.05,189.19 "></polygon>   <polygon class="fil0" points="1714.46,0.26 1714.46,79.49 1872.68,79.49 1872.68,133.09 1504.24,133.09 1504.24,79.99 1662.05,79.99 1662.05,0.26 "></polygon>   <polygon class="fil0" points="476.88,242.3 318.4,242.3 318.4,189.28 530.02,189.28 530.02,398.74 476.88,398.74 "></polygon>   <polygon class="fil0" points="2846.81,189.11 3058.36,189.11 3058.36,242.21 2900.22,242.21 2900.22,398.76 2846.81,398.76 "></polygon>   <polygon class="fil0" points="1929.13,189.1 2140.66,189.1 2140.66,242.2 1982.54,242.2 1982.54,398.75 1929.13,398.75 "></polygon>   <polygon class="fil0" points="1447.62,398.75 1394.47,398.75 1394.47,242.74 1236.18,242.74 1236.18,189.37 1447.62,189.37 "></polygon>   <polygon class="fil0" points="2899.87,711.04 3058.36,711.04 3058.36,762.52 2846.74,762.52 2846.74,553.08 2899.87,553.08 "></polygon>   <polygon class="fil0" points="1929.13,553.08 1982.3,553.08 1982.3,710.61 2140.59,710.61 2140.59,762.71 1929.13,762.71 "></polygon>   <polygon class="fil0" points="1236.07,762.53 1236.07,711.04 1394.02,711.04 1394.02,553.16 1447.8,553.16 1447.8,762.53 "></polygon>   <polygon class="fil0" points="530.11,553.26 530.11,762.7 318.56,762.7 318.56,710.96 476.4,710.96 476.4,553.26 "></polygon>   <polygon class="fil0" points="2581.81,398.57 2581.81,347.08 2736.68,347.08 2736.68,189.2 2790.47,189.2 2790.47,398.57 "></polygon>   <polygon class="fil0" points="586.28,398.56 586.28,189.13 639.52,189.13 639.52,346.81 794.93,346.81 794.93,398.56 "></polygon>   <polygon class="fil0" points="3323.3,553.04 3375.41,553.04 3375.41,762.64 3165.65,762.64 3165.65,711.07 3323.3,711.07 "></polygon>   <polygon class="fil0" points="2406.07,711.15 2406.07,553.08 2457.68,553.08 2457.68,762.6 2247.73,762.6 2247.73,711.15 "></polygon>   <polygon class="fil0" points="918.86,762.52 918.86,553.08 970.55,553.08 970.55,710.75 1129.02,710.75 1129.02,762.52 "></polygon>   <polygon class="fil0" points="2631.96,711.04 2790.45,711.04 2790.45,762.52 2581.9,762.52 2581.9,553.08 2631.96,553.08 "></polygon>   <polygon class="fil0" points="794.76,762.71 586.3,762.71 586.3,711.15 744.4,711.15 744.4,553.08 794.76,553.08 "></polygon>   <polygon class="fil0" points="3375.37,398.75 3217.72,398.75 3217.72,189.31 3271.13,189.31 3271.13,346.72 3375.37,346.72 "></polygon>   <path class="fil0" d="M317.99 133.28l-211.9 0 0 -132.95 53.12 0 0 79.38 8.67 0c46.95,0 93.91,0.17 140.86,-0.17 7.61,-0.06 9.65,2.33 9.4,9.58 -0.5,14.51 -0.15,29.04 -0.15,44.16z"></path>   <path class="fil0" d="M1076.82 79.71c28.3,0 55.22,0 82.14,0 23.09,0 46.19,0.15 69.28,-0.11 5.71,-0.06 7.65,1.77 7.54,7.48 -0.3,15.07 -0.1,30.15 -0.1,45.8l-212 0 0 -132.64 53.14 0 0 79.47z"></path>   <path class="fil0" d="M3217.53 79.71l0 -79.48 53.15 0 0 132.77 -211.93 0c0,-2.95 0,-6.14 0,-9.33 0,-11.51 0.39,-23.05 -0.14,-34.54 -0.33,-7.24 1.77,-9.65 9.38,-9.59 46.7,0.34 93.4,0.17 140.1,0.17l9.44 0z"></path>   <path class="fil0" d="M2352.98 133.07l-211.87 0c0,-16.42 0.02,-32.47 -0.02,-48.52 -0.01,-5 3.38,-4.86 6.87,-4.85 17.96,0.02 35.92,0.01 53.88,0.01 29.51,0 59.02,0 88.53,0l9.17 0 0 -79.47 53.44 0 0 132.83z"></path>   <polygon class="fil0" points="744.63,80.03 744.63,0.26 794.74,0.26 794.74,132.97 586.32,132.97 586.32,80.03 "></polygon>   <polygon class="fil0" points="2581.99,0.23 2632.06,0.23 2632.06,79.44 2790.36,79.44 2790.36,133.08 2581.99,133.08 "></polygon>   <polygon class="fil0" points="2404.81,0.02 2459.2,0.02 2459.2,137.53 2404.81,137.53 "></polygon>   <polygon class="fil0" points="971.86,137.7 917.36,137.7 917.36,0.47 971.86,0.47 "></polygon>   <polygon class="fil0" points="530.11,132.87 477.09,132.87 477.09,0.3 530.11,0.3 "></polygon>   <polygon class="fil0" points="2899.63,133.09 2846.66,133.09 2846.66,0.46 2899.63,0.46 "></polygon>   <polygon class="fil0" points="1394.75,0 1447.56,0 1447.56,132.9 1394.75,132.9 "></polygon>   <polygon class="fil0" points="1981.93,133.1 1928.97,133.1 1928.97,0.47 1981.93,0.47 "></polygon>   <polygon class="fil0" points="779.57,318.87 675.84,318.87 675.84,264.53 779.57,264.53 "></polygon>   <polygon class="fil0" points="2192.42,187.55 2246.89,187.55 2246.89,291.01 2192.42,291.01 "></polygon>   <polygon class="fil0" points="1129.78,187.62 1184.26,187.62 1184.26,291.08 1129.78,291.08 "></polygon>   <polygon class="fil0" points="2597.18,264.39 2700.91,264.39 2700.91,318.74 2597.18,318.74 "></polygon>   <polygon class="fil0" points="586.45,553.05 639.41,553.05 639.41,654.97 586.45,654.97 "></polygon>   <polygon class="fil0" points="1236.25,553.03 1289.16,553.03 1289.16,654.94 1236.25,654.94 "></polygon>   <polygon class="fil0" points="3005.41,553.03 3058.33,553.03 3058.33,654.94 3005.41,654.94 "></polygon>   <polygon class="fil0" points="1021.3,503.15 919.11,503.15 919.11,450.34 1021.3,450.34 "></polygon>   <polygon class="fil0" points="2355.43,450.21 2457.63,450.21 2457.63,503.01 2355.43,503.01 "></polygon>   <polygon class="fil0" points="2737.49,553.04 2790.42,553.04 2790.42,654.96 2737.49,654.96 "></polygon>   <polygon class="fil0" points="3375.59,503.01 3273.26,503.01 3273.26,450.21 3375.59,450.21 "></polygon>   <polygon class="fil0" points="212.24,188.9 265.02,188.9 265.02,291.06 212.24,291.06 "></polygon>   <polygon class="fil0" points="2140.53,655.22 2087.56,655.22 2087.56,553.3 2140.53,553.3 "></polygon>   <polygon class="fil0" points="371.53,655.01 318.49,655.01 318.49,553.12 371.53,553.12 "></polygon>   <polygon class="fil0" points="1819.8,553.04 1872.73,553.04 1872.73,654.96 1819.8,654.96 "></polygon>   <polygon class="fil0" points="3111.67,189.06 3164.56,189.06 3164.56,291.26 3111.67,291.26 "></polygon>   <polygon class="fil0" points="1556.99,655.2 1503.97,655.2 1503.97,553.28 1556.99,553.28 "></polygon>   <path class="fil0" d="M1503.77 503.53l0 -53.11 102.93 0c0,16.26 0.11,32.76 -0.2,49.26 -0.03,1.31 -2.94,3.67 -4.53,3.68 -32.5,0.22 -65,0.17 -98.2,0.17z"></path>   <path class="fil0" d="M1769.98 450.19l102.79 0 0 52.79c-1.91,0.19 -3.85,0.54 -5.8,0.54 -29.74,0.03 -59.48,-0.14 -89.22,0.14 -6.15,0.05 -8.04,-1.86 -7.89,-7.91 0.37,-15.02 0.12,-30.06 0.12,-45.56z"></path>   <path class="fil0" d="M586.5 450.12l102.54 0c0,16.59 0.15,32.87 -0.25,49.14 -0.04,1.47 -3.66,4.08 -5.63,4.09 -32.03,0.26 -64.06,0.19 -96.66,0.19l0 -53.42z"></path>   <path class="fil0" d="M2687.67 449.95l102.53 0 0 53.07c-1.68,0.15 -3.63,0.5 -5.58,0.5 -29.74,0.03 -59.48,-0.15 -89.21,0.14 -6.2,0.06 -8,-1.94 -7.86,-7.95 0.36,-15.01 0.12,-30.05 0.12,-45.76z"></path>   <polygon class="fil0" points="2297.75,606.04 2197.1,606.04 2197.1,553.23 2297.75,553.23 "></polygon>   <polygon class="fil0" points="1078.97,553.1 1179.63,553.1 1179.63,605.89 1078.97,605.89 "></polygon>   <polygon class="fil0" points="2035.35,29.38 2088.31,29.38 2088.31,129.77 2035.35,129.77 "></polygon>   <polygon class="fil0" points="1341.38,130.04 1288.45,130.04 1288.45,29.66 1341.38,29.66 "></polygon>   <polygon class="fil0" points="2952.84,29.45 3005.79,29.45 3005.79,129.83 2952.84,129.83 "></polygon>   <polygon class="fil0" points="370.9,29.37 423.83,29.37 423.83,129.76 370.9,129.76 "></polygon>   <polygon class="fil0" points="262.22,606.03 161.57,606.03 161.57,553.24 262.22,553.24 "></polygon>   <polygon class="fil0" points="3114.68,553.08 3215.43,553.08 3215.43,605.88 3114.68,605.88 "></polygon>   <polygon class="fil0" points="3323.91,189.17 3375.31,189.17 3375.31,291.05 3323.91,291.05 "></polygon>   <polygon class="fil0" points="1714.02,291.27 1662.59,291.27 1662.59,189.35 1714.02,189.35 "></polygon>   <polygon class="fil0" points="3324.09,29.41 3375.57,29.41 3375.57,129.8 3324.09,129.8 "></polygon>   <polygon class="fil0" points="1662.7,450.19 1714.18,450.19 1714.18,502.98 1662.7,502.98 "></polygon>   <polygon class="fil0" points="2581.97,450.15 2631.83,450.15 2631.83,502.94 2581.97,502.94 "></polygon>   <polygon class="fil0" points="794.77,503.21 744.92,503.21 744.92,450.42 794.77,450.42 "></polygon>   <polygon class="fil0" points="3374.78,926.52 3322.56,926.52 3322.56,768.61 3164.48,768.61 3164.48,716.13 3374.78,716.13 "></polygon>   <polygon class="fil0" points="3374.78,1132.3 3270.22,1132.3 3270.22,1290.06 3216.78,1290.06 3216.78,1080.08 3374.78,1080.08 "></polygon>   <polygon class="fil0" points="3374.78,1029.41 3272.16,1029.41 3272.16,975.66 3374.78,975.66 "></polygon>   <polygon class="fil0" points="3374.78,1290.47 3322.94,1290.47 3322.94,1187.58 3374.78,1187.58 "></polygon>   <polygon class="fil0" points="3374.78,1450.18 3322.94,1450.18 3322.94,1348.82 3374.78,1348.82 "></polygon>   <polygon class="fil0" points="1502.98,1080.4 1871.54,1080.4 1871.54,1290.1 1818.37,1290.1 1818.37,1132.77 1556.64,1132.77 1556.64,1289.84 1502.98,1289.84 "></polygon>   <path class="fil0" d="M528.99 976.2l0 52.91 -157.83 0 0 158.4c-17.35,0 -33.91,0.19 -50.45,-0.33 -1.37,-0.05 -3.68,-4.86 -3.7,-7.47 -0.25,-35.55 -0.17,-71.11 -0.17,-106.67l0 -43.33 -156.42 0 0 -53.51 368.57 0z"></path>   <path class="fil0" d="M1288.29 1029.11l0 158.45c-16.6,0 -32.68,-0.03 -48.76,0.02 -4.89,0.02 -5.03,-3.13 -5.02,-6.73 0.05,-18.42 0.02,-36.83 0.02,-55.25 0,-31.7 0,-63.39 0,-95.9l-156.56 0 0 -53.64 368.67 0 0 53.05 -158.35 0z"></path>   <path class="fil0" d="M2296.61 976.19l0 52.94 -156.71 0 0 8.56c0,47.07 -0.12,94.13 0.13,141.2 0.03,6.55 -1.57,9.07 -8.56,8.84 -14.82,-0.5 -29.66,-0.15 -45.31,-0.15l0 -157.89 -158.13 0 0 -53.5 368.58 0z"></path>   <path class="fil0" d="M3003.72 1187.58l0 -157.76 -158.06 0 0 -53.7 368.55 0 0 52.88 -156.62 0 0 8.88c0,47.07 -0.13,94.14 0.14,141.2 0.04,6.82 -2.05,8.84 -8.76,8.64 -14.81,-0.45 -29.63,-0.14 -45.25,-0.14z"></path>   <polygon class="fil0" points="1502.79,768.64 1502.79,716.54 1871.59,716.54 1871.59,768.02 1713.58,768.02 1713.58,926.07 1661.47,926.07 1661.47,768.64 "></polygon>   <polygon class="fil0" points="917.9,1080.44 1075.53,1080.44 1075.53,1289.86 743.92,1289.86 743.92,1253.78 1021.61,1253.78 1021.61,1132.73 917.9,1132.73 "></polygon>   <polygon class="fil0" points="2298.64,1290.02 2298.64,1080.71 2456.53,1080.71 2456.53,1132.19 2352.77,1132.19 2352.77,1253.23 2630.53,1253.23 2630.53,1290.02 "></polygon>   <polygon class="fil0" points="1661.12,1478.95 1661.12,1399.72 1502.9,1399.72 1502.9,1346.12 1871.35,1346.12 1871.35,1399.22 1713.53,1399.22 1713.53,1478.95 "></polygon>   <polygon class="fil0" points="2898.71,1236.91 3057.18,1236.91 3057.18,1289.93 2845.57,1289.93 2845.57,1080.47 2898.71,1080.47 "></polygon>   <polygon class="fil0" points="528.77,1290.1 317.23,1290.1 317.23,1237 475.36,1237 475.36,1080.45 528.77,1080.45 "></polygon>   <polygon class="fil0" points="1446.46,1290.11 1234.92,1290.11 1234.92,1237.01 1393.04,1237.01 1393.04,1080.46 1446.46,1080.46 "></polygon>   <polygon class="fil0" points="1927.97,1080.46 1981.11,1080.46 1981.11,1236.47 2139.41,1236.47 2139.41,1289.84 1927.97,1289.84 "></polygon>   <polygon class="fil0" points="475.71,768.17 317.22,768.17 317.22,716.69 528.85,716.69 528.85,926.13 475.71,926.13 "></polygon>   <polygon class="fil0" points="1446.46,926.13 1393.29,926.13 1393.29,768.6 1234.99,768.6 1234.99,716.5 1446.46,716.5 "></polygon>   <polygon class="fil0" points="2139.51,716.68 2139.51,768.17 1981.57,768.17 1981.57,926.05 1927.78,926.05 1927.78,716.68 "></polygon>   <polygon class="fil0" points="2845.48,925.95 2845.48,716.51 3057.02,716.51 3057.02,768.25 2899.18,768.25 2899.18,925.95 "></polygon>   <polygon class="fil0" points="793.77,1080.63 793.77,1132.13 638.9,1132.13 638.9,1290.01 585.12,1290.01 585.12,1080.63 "></polygon>   <polygon class="fil0" points="2789.31,1080.64 2789.31,1290.08 2736.07,1290.08 2736.07,1132.4 2580.65,1132.4 2580.65,1080.64 "></polygon>   <polygon class="fil0" points="52.29,926.17 0.17,926.17 0.17,716.57 209.94,716.57 209.94,768.14 52.29,768.14 "></polygon>   <polygon class="fil0" points="969.52,768.06 969.52,926.13 917.9,926.13 917.9,716.61 1127.86,716.61 1127.86,768.06 "></polygon>   <polygon class="fil0" points="2456.72,716.69 2456.72,926.13 2405.03,926.13 2405.03,768.46 2246.57,768.46 2246.57,716.69 "></polygon>   <polygon class="fil0" points="743.63,768.17 585.14,768.17 585.14,716.69 793.69,716.69 793.69,926.13 743.63,926.13 "></polygon>   <polygon class="fil0" points="2580.83,716.5 2789.28,716.5 2789.28,768.06 2631.18,768.06 2631.18,926.13 2580.83,926.13 "></polygon>   <polygon class="fil0" points="0.22,1080.46 157.86,1080.46 157.86,1289.9 104.46,1289.9 104.46,1132.49 0.22,1132.49 "></polygon>   <path class="fil0" d="M3057.59 1345.93l211.91 0 0 132.95 -53.13 0 0 -79.38 -8.66 0c-46.96,0 -93.92,-0.17 -140.87,0.17 -7.6,0.05 -9.64,-2.34 -9.4,-9.58 0.5,-14.51 0.15,-29.04 0.15,-44.16z"></path>   <path class="fil0" d="M2298.77 1399.5c-28.31,0 -55.23,0 -82.14,0 -23.1,0 -46.19,-0.15 -69.28,0.11 -5.71,0.06 -7.66,-1.77 -7.54,-7.48 0.3,-15.07 0.1,-30.15 0.1,-45.8l211.99 0 0 132.64 -53.13 0 0 -79.47z"></path>   <path class="fil0" d="M158.06 1399.5l0 79.48 -53.16 0 0 -132.77 211.93 0c0,2.95 0,6.14 0,9.33 0,11.51 -0.38,23.04 0.15,34.54 0.33,7.24 -1.77,9.65 -9.39,9.59 -46.69,-0.34 -93.4,-0.17 -140.09,-0.17l-9.44 0z"></path>   <path class="fil0" d="M1022.6 1346.13l211.88 0c0,16.42 -0.03,32.48 0.02,48.53 0.01,5 -3.38,4.85 -6.88,4.85 -17.96,-0.03 -35.92,-0.01 -53.88,-0.01 -29.51,0 -59.02,0 -88.52,0l-9.18 0 0 79.47 -53.44 0 0 -132.84z"></path>   <polygon class="fil0" points="2630.95,1399.18 2630.95,1478.95 2580.85,1478.95 2580.85,1346.24 2789.26,1346.24 2789.26,1399.18 "></polygon>   <polygon class="fil0" points="793.6,1478.97 743.52,1478.97 743.52,1399.76 585.22,1399.76 585.22,1346.12 793.6,1346.12 "></polygon>   <polygon class="fil0" points="970.78,1479.19 916.39,1479.19 916.39,1341.68 970.78,1341.68 "></polygon>   <polygon class="fil0" points="2403.73,1341.5 2458.23,1341.5 2458.23,1478.74 2403.73,1478.74 "></polygon>   <polygon class="fil0" points="2845.47,1346.34 2898.49,1346.34 2898.49,1478.91 2845.47,1478.91 "></polygon>   <polygon class="fil0" points="475.96,1346.12 528.93,1346.12 528.93,1478.75 475.96,1478.75 "></polygon>   <polygon class="fil0" points="1980.83,1479.21 1928.02,1479.21 1928.02,1346.31 1980.83,1346.31 "></polygon>   <polygon class="fil0" points="1393.65,1346.11 1446.62,1346.11 1446.62,1478.74 1393.65,1478.74 "></polygon>   <polygon class="fil0" points="2596.02,1160.34 2699.75,1160.34 2699.75,1214.68 2596.02,1214.68 "></polygon>   <polygon class="fil0" points="1183.17,1291.66 1128.69,1291.66 1128.69,1188.2 1183.17,1188.2 "></polygon>   <polygon class="fil0" points="2245.8,1291.59 2191.32,1291.59 2191.32,1188.13 2245.8,1188.13 "></polygon>   <polygon class="fil0" points="778.4,1214.82 674.67,1214.82 674.67,1160.47 778.4,1160.47 "></polygon>   <polygon class="fil0" points="2789.14,926.16 2736.18,926.16 2736.18,824.24 2789.14,824.24 "></polygon>   <polygon class="fil0" points="2139.34,926.18 2086.43,926.18 2086.43,824.26 2139.34,824.26 "></polygon>   <polygon class="fil0" points="370.18,926.18 317.26,926.18 317.26,824.27 370.18,824.27 "></polygon>   <polygon class="fil0" points="2354.28,976.06 2456.47,976.06 2456.47,1028.87 2354.28,1028.87 "></polygon>   <polygon class="fil0" points="1020.15,1029 917.96,1029 917.96,976.2 1020.15,976.2 "></polygon>   <polygon class="fil0" points="638.1,926.17 585.16,926.17 585.16,824.25 638.1,824.25 "></polygon>   <polygon class="fil0" points="0,976.2 102.33,976.2 102.33,1029 0,1029 "></polygon>   <polygon class="fil0" points="3163.34,1290.31 3110.57,1290.31 3110.57,1188.15 3163.34,1188.15 "></polygon>   <polygon class="fil0" points="1235.06,823.99 1288.03,823.99 1288.03,925.91 1235.06,925.91 "></polygon>   <polygon class="fil0" points="3004.05,824.2 3057.09,824.2 3057.09,926.08 3004.05,926.08 "></polygon>   <polygon class="fil0" points="1555.79,926.17 1502.85,926.17 1502.85,824.25 1555.79,824.25 "></polygon>   <polygon class="fil0" points="263.92,1290.15 211.03,1290.15 211.03,1187.95 263.92,1187.95 "></polygon>   <polygon class="fil0" points="1818.6,824.01 1871.61,824.01 1871.61,925.93 1818.6,925.93 "></polygon>   <path class="fil0" d="M1871.82 975.68l0 53.1 -102.93 0c0,-16.25 -0.11,-32.75 0.2,-49.25 0.02,-1.31 2.94,-3.68 4.52,-3.69 32.5,-0.21 65.01,-0.16 98.21,-0.16z"></path>   <path class="fil0" d="M1605.6 1029.02l-102.79 0 0 -52.79c1.91,-0.19 3.86,-0.54 5.81,-0.54 29.74,-0.03 59.48,0.14 89.21,-0.14 6.16,-0.06 8.04,1.86 7.89,7.91 -0.36,15.02 -0.12,30.06 -0.12,45.56z"></path>   <path class="fil0" d="M2789.09 1029.08l-102.55 0c0,-16.58 -0.15,-32.86 0.26,-49.13 0.04,-1.47 3.65,-4.08 5.62,-4.09 32.03,-0.26 64.06,-0.19 96.67,-0.19l0 53.41z"></path>   <path class="fil0" d="M687.91 1029.25l-102.53 0 0 -53.06c1.68,-0.16 3.63,-0.5 5.58,-0.5 29.74,-0.03 59.48,0.14 89.22,-0.14 6.2,-0.06 7.99,1.94 7.85,7.95 -0.36,15.01 -0.12,30.04 -0.12,45.75z"></path>   <polygon class="fil0" points="1077.83,873.16 1178.49,873.16 1178.49,925.98 1077.83,925.98 "></polygon>   <polygon class="fil0" points="2296.61,926.1 2195.96,926.1 2195.96,873.32 2296.61,873.32 "></polygon>   <polygon class="fil0" points="1340.23,1449.82 1287.28,1449.82 1287.28,1349.44 1340.23,1349.44 "></polygon>   <polygon class="fil0" points="2034.21,1349.17 2087.13,1349.17 2087.13,1449.55 2034.21,1449.55 "></polygon>   <polygon class="fil0" points="422.74,1449.76 369.8,1449.76 369.8,1349.38 422.74,1349.38 "></polygon>   <polygon class="fil0" points="3004.69,1449.84 2951.76,1449.84 2951.76,1349.45 3004.69,1349.45 "></polygon>   <polygon class="fil0" points="3113.37,873.18 3214.02,873.18 3214.02,925.97 3113.37,925.97 "></polygon>   <polygon class="fil0" points="260.9,926.13 160.15,926.13 160.15,873.33 260.9,873.33 "></polygon>   <polygon class="fil0" points="51.68,1290.04 0.28,1290.04 0.28,1188.16 51.68,1188.16 "></polygon>   <polygon class="fil0" points="1661.57,1187.94 1712.99,1187.94 1712.99,1289.86 1661.57,1289.86 "></polygon>   <polygon class="fil0" points="51.49,1449.79 0.02,1449.79 0.02,1349.41 51.49,1349.41 "></polygon>   <polygon class="fil0" points="1712.89,1029.02 1661.4,1029.02 1661.4,976.23 1712.89,976.23 "></polygon>   <polygon class="fil0" points="793.61,1029.06 743.76,1029.06 743.76,976.27 793.61,976.27 "></polygon>   <polygon class="fil0" points="2580.81,976 2630.67,976 2630.67,1028.79 2580.81,1028.79 "></polygon>  </g> </g></svg>